<svg width="680" height="680" viewBox="0 0 510 510" xmlns="http://www.w3.org/2000/svg"><path d="M16.232 373.342c13.44 1.121 122.08 71.121 224 94.078 21.84 1.68 42.559 2.238 48.719 1.121 2.8-.558 7.84-2.238 14-3.922 28-9.52 60.48-25.762 85.12-30.238 36.399-6.718 99.68-40.32 107.52-42.559 5.602-5.039-.558-11.199-3.359-9.52-3.359 2.24-8.96 3.36-18.48 3.923-9.52.558-40.32 11.762-52.64 15.12-12.322 3.36-39.2 3.36-45.923 3.36-1.68 0-3.359 0-4.48-.558-28.56 2.8-75.04 5.601-141.12 2.238 77.28 3.922 121.52-2.8 137.2-6.16 0-.559 0-.559.558-1.121 0 0-1.12-17.36-4.48-20.72-2.8-3.359-2.238-11.761 1.68-16.237 3.922-5.04 2.8-17.922 2.238-22.398-.559-4.48-6.16-29.121-5.602-34.72.559-4.48-2.8-19.038-2.8-30.237-6.16 11.199-17.922 23.52-40.88 21.28 28-2.8 33.603-20.16 42-31.921 2.239-12.32 1.122-34.72 1.68-36.398.559-2.239-6.719-6.72-10.078-8.399-3.36-1.68-5.601-12.32-5.601-12.32s-2.239-5.601-2.801-11.762c-.559-6.16-10.641-25.199-13.441-29.12-.559-.56-.559-1.122-1.121-2.24-10.641 3.923-29.68 8.962-59.36 8.962 21.282 0 50.399-9.52 59.923-13.441.558-3.36 1.68-7.281.558-11.2-2.238-6.718-5.601-12.878-14.559-28.558-7.84 6.719-19.602 12.32-38.078 11.762 18.48-1.68 25.762-8.399 38.641-16.238 1.121-12.32-3.36-20.72-7.84-24.641-5.601-4.48-15.68-12.32-15.68-12.32-.558-2.239.56-5.602-3.359-5.04-3.922.56-7.84-2.8-9.52-6.16-1.68-2.8-6.718-2.238-12.878-6.16-6.72-3.36-11.762-16.238-15.121-19.602-2.801-3.36-19.602 2.239-22.398 2.801-2.801.559-39.762 2.8-49.281 3.36-9.52.558-17.36 5.039-21.84 7.84 0 0-2.239 2.238 1.12 3.359 3.36 1.12 34.72 3.922 45.36 5.039h2.238c1.121 0 1.68 0 2.238.558 6.16.559 15.121-.558 24.078-10.64 0 0-7.28 13.44-23.52 14.558-.558 1.68-1.68 2.801-2.238 5.04-1.121 4.48 10.641 26.32 10.641 29.68 0 3.359-6.16 10.077-7.84 14.558-2.238 4.481 9.52 20.72 11.762 26.32 2.239 5.602-2.8 16.238-2.8 23.52 0 6.72 6.718 10.078 7.28 15.68.56 5.602-15.12 11.762-25.761 24.078-11.2 12.32-15.68 11.2-14 22.398.558 5.04.558 8.961 0 12.88 2.8 7.84 7.84 16.237 17.359 17.921 14 2.801 62.719 19.04 90.719 10.641-20.72 11.762-50.961 2.801-66.641-.558-13.441-2.8-38.641-6.719-43.68-21.84-1.121 2.8-2.801 5.039-5.04 7.281-6.718 5.602-10.64 17.36-11.761 19.04-1.122 2.237-6.16 25.198-6.16 30.8s-6.72 13.441-10.079 19.04c-2.8 5.6-3.36 37.52-1.68 40.32 1.122 1.12 2.239 3.358 3.36 5.038 17.922 5.04 82.879 14.56 145.04 12.88-90.16 3.359-127.12-3.923-142.24-7.84 0 0-10.078 4.48-12.32 6.718-2.238 2.238 3.36 7.84 2.238 10.641-.558.559-.558 1.68-1.68 2.238 13.442 3.36 36.962 9.52 56 12.88-9.519-.56-53.761-7.282-66.64-10.079-8.399 0-13.441-2.238-19.04-2.8-5.601-1.121-19.601.558-30.237-2.239-11.2-2.8-37.52-17.922-42.56-20.16-5.038-2.238-16.237-3.922-22.96-4.48-4.48-.559-6.72 3.922-7.84 8.96 2.246-2.8 3.926-3.363 6.168-3.363z" style="opacity:.938389;fill:#0b090a;fill-opacity:1"/><path d="M20.152 378.942c-5.602-2.8-10.078-.558-7.84 12.88 3.922 9.519 14 22.96 34.719 39.198 29.121 22.398 49.281 21.84 64.398 22.398 15.121.559 44.238 3.36 72.801 7.84 11.762 1.68 30.238 3.922 47.602 5.602-70-16.238-161.84-62.156-211.68-87.918zM369.032 442.782c-6.16 1.68-15.68 5.602-25.2 11.2 11.2-2.802 22.399-4.481 30.239-5.04 23.52-1.68 44.8-7.84 57.68-12.32 10.078-3.922 35.84-25.199 51.52-36.398-85.68 34.72-96.88 38.637-114.24 42.56z" style="opacity:.938389;fill:gray;fill-opacity:1"/></svg>